<?xml version="1.0" encoding="utf-8"?>
<!-- Generator: Adobe Illustrator 22.0.0, SVG Export Plug-In . SVG Version: 6.00 Build 0)  -->
<svg version="1.1" id="Camada_1" xmlns="http://www.w3.org/2000/svg" xmlns:xlink="http://www.w3.org/1999/xlink" x="0px" y="0px"
	 viewBox="0 0 705.3 112" style="enable-background:new 0 0 705.3 112;" xml:space="preserve">
<style type="text/css">
	.st0{fill:#EE3E25;}
	.st1{fill:#26265E;}
</style>
<title>Impulso Network Comunidade de Tecnologia</title>
<g id="impulso-network-logo">
	<g id="network-logo">
		<path class="st0" d="M385.1,81.1l-2.2,2.2c-0.9,0.9-2.3,0.9-3.2,0.1c-0.9-0.9-0.9-2.3-0.1-3.2c0,0,0.1-0.1,0.1-0.1l2.2-2.2
			c0.9-0.9,2.3-0.8,3.2,0.1C386,78.8,386,80.2,385.1,81.1 M370.7,79.5c-0.9-0.9-2.3-0.9-3.2,0c0,0,0,0,0,0l-2.2,2.2
			c-0.9,0.9-0.9,2.3,0,3.2c0.9,0.9,2.3,0.9,3.2,0l2.2-2.2C371.6,81.8,371.6,80.4,370.7,79.5C370.8,79.5,370.7,79.5,370.7,79.5
			 M398.6,67.6l0.3-0.2c4.4-4.4,4.4-11.6,0-16s-11.6-4.4-16,0c-0.1,0.2-0.3,0.3-0.4,0.5l-0.2,0.2l-12.1,12.2
			c-0.8,0.9-0.7,2.4,0.2,3.2c0.9,0.8,2.1,0.8,3,0l5.1-5.1c0.9-0.9,2.3-0.8,3.2,0.1c0.8,0.9,0.8,2.2,0,3.1l-0.2,0.2l-9.1,9.1
			c-0.9,0.9-0.9,2.3,0,3.2c0.9,0.9,2.3,0.9,3.2,0l9.3-9.3c0.9-0.9,2.3-0.8,3.2,0.1c0.8,0.9,0.8,2.2,0,3.1l-1.3,1.3
			c-0.9,0.9-0.8,2.3,0.1,3.2c0.9,0.8,2.2,0.8,3.1,0L398.6,67.6L398.6,67.6"/>
		<path class="st1" d="M0,12.5C0,5.6,5.6,0,12.5,0S25,5.6,25,12.5C25,19.4,19.4,25,12.5,25c0,0,0,0,0,0C5.6,25,0,19.5,0,12.5
			C0,12.6,0,12.5,0,12.5 M413.2,37c-12.3-12.3-32.1-12.2-44.4,0c-7.9,7.9-11,19.5-8.1,30.3l19.2-19.2c6.1-6.1,16.1-6.1,22.2,0
			s6.1,16.1,0,22.2l-19.2,19.2c16.7,4.5,34-5.5,38.4-22.2C424.2,56.5,421.1,44.9,413.2,37z M333.4,49c-5.9-0.9-7.7-1.1-7.7-2.7
			c0-1.4,2.4-2.5,5.6-2.5c5.2,0.1,10.3,1.6,14.7,4.2c1.6,0.8,3.6,0.3,4.7-1.2l4.6-8.2c0.9-1.6,0.4-3.7-1.1-4.8c-7.1-3.9-15-6-23.1-6
			c-17.3,0-26.8,9.7-26.8,20.4c0,16.7,15.5,18.8,25.5,20.2c4.8,0.6,8.4,1.1,8.4,3c0,1.5-1.4,2.6-5.9,2.6c-5.5,0-13.5-2.6-18.7-5.7
			c-1.6-0.8-3.6-0.3-4.7,1.2l-5.6,9.4c-0.7,1.6-0.2,3.4,1.2,4.5c6.7,4.3,17,7.2,26.6,7.2c2.2,0,4.4-0.1,6.5-0.4l21.8-21.8
			C358.6,52.8,343.1,50.5,333.4,49 M299.3,85.4v-75c0-2.1-1.7-3.8-3.8-3.8h-14.8c-2.1,0-3.8,1.6-3.8,3.7c0,0,0,0,0,0v75
			c0,2.1,1.7,3.8,3.8,3.8h14.8C297.6,89.2,299.3,87.5,299.3,85.4C299.3,85.4,299.3,85.4,299.3,85.4 M269.3,33.8v-0.6
			c0-2.1-1.7-3.8-3.8-3.8h-14.7c-2.1,0-3.8,1.7-3.8,3.8v33.2c-1.9,2.1-4.5,4.7-9.4,4.7c-5.4,0-8.7-2.3-8.7-8.4V33.2
			c0-2.1-1.7-3.8-3.8-3.8h-14.8c-2.1,0-3.8,1.7-3.8,3.8v39c0,10.3,5.9,18.6,19.8,18.6c10.5,0,17.1-4.3,20.6-8.2v2.9
			c0,2,1.6,3.7,3.7,3.8h15c2-0.1,3.6-1.8,3.6-3.8L269.3,33.8L269.3,33.8z M130,85.4V45.8c0-12.4-7.4-18-18.5-18
			c-9.7,0-17.5,5.3-20.9,10.5c-2.7-7.4-8.8-10.5-17.2-10.5c-9.7,0-17.2,5-19.8,8.3v-3c0-2.1-1.7-3.8-3.8-3.8H35.1
			c-2.1,0-3.8,1.7-3.8,3.8v52.2c0,2.1,1.7,3.8,3.8,3.8h14.8c2.1,0,3.8-1.7,3.8-3.8c0,0,0,0,0,0V52.3c1.5-1.7,4.2-4.7,9-4.7
			c5.1,0,6.8,3.1,6.8,6.7v31.1c0,2.1,1.7,3.8,3.8,3.8H88c2.1,0,3.8-1.7,3.8-3.8V52.3c1.5-1.7,4.2-4.7,9.2-4.7s6.8,3.1,6.8,6.7v31.1
			c0,2.1,1.7,3.8,3.8,3.8h14.8C128.3,89.1,130,87.5,130,85.4 M203.1,59.2c0,20.6-11.4,31.4-26.3,31.4c-6.5,0.1-12.7-2.7-16.9-7.8
			v25.3c0,2.1-1.7,3.8-3.8,3.8l0,0h-14.8c-2.1,0-3.8-1.7-3.8-3.8v-75c0-2.1,1.7-3.8,3.7-3.8c0,0,0,0,0,0h14.8c2.1,0,3.7,1.7,3.8,3.8
			v2.5c4.1-5.1,10.3-8,16.8-7.8C191.7,27.9,203.1,38.8,203.1,59.2 M180.3,59.2c0-7.4-5.2-11.6-11.1-11.6c-2.9,0-7.1,1.5-9.2,4.1
			v15.2c2,2.5,6.3,4.1,9.2,4.1C175.2,71,180.3,66.7,180.3,59.2 M23.6,85.4V33.2c0-2.1-1.7-3.8-3.8-3.8H5.1c-2.1,0-3.8,1.7-3.8,3.8
			v52.2c0,2.1,1.7,3.8,3.8,3.8h14.8C22,89.2,23.7,87.5,23.6,85.4C23.7,85.4,23.7,85.4,23.6,85.4 M696.2,91.8H447.9
			c-5,0-9.1-4.1-9.1-9.1v-47c0-5,4.1-9.1,9.1-9.1h248.3c5,0,9.1,4.1,9.1,9.1v47C705.3,87.7,701.2,91.8,696.2,91.8z M447.9,29.6
			c-3.4,0-6.1,2.7-6.1,6.1v47c0,3.4,2.7,6.1,6.1,6.1h248.3c3.4,0,6.1-2.7,6.1-6.1v-47c0-3.4-2.7-6.1-6.1-6.1L447.9,29.6z"/>
		<path class="st1" d="M481.8,68.1l-9.3-12.7v12.7h-3.1V50.3h3.2l9.1,12.4V50.3h3.1v17.8H481.8z M501.9,68.1V50.3h12.2V53H505v4.6
			h8.9v2.8H505v4.9h9.1V68L501.9,68.1z M534.9,68.1V53h-5.4v-2.7h13.9V53H538v15L534.9,68.1z M573,68.1l-3.5-13.1l-3.5,13.1h-3.3
			l-5.1-17.8h3.5l3.5,13.7l3.7-13.7h2.5l3.7,13.7l3.4-13.7h3.5l-5.1,17.8L573,68.1z M595.5,59.2c0-5,4.1-9.1,9.1-9.1
			c5,0,9.1,4.1,9.1,9.1l0,0c0,5-4.1,9.1-9.1,9.1C599.6,68.3,595.5,64.2,595.5,59.2z M610.5,59.2c0-3.7-2.3-6.4-5.9-6.4
			s-5.9,2.8-5.9,6.4s2.3,6.4,5.9,6.4S610.5,62.8,610.5,59.2z M640.3,68.1l-4-6.6h-3.1v6.6h-3.1V50.3h7.8c3.5,0,5.8,2.3,5.8,5.6
			c0.1,2.6-1.7,4.8-4.2,5.2l4.3,7L640.3,68.1z M640.5,55.8c0-1.5-1.2-2.8-2.8-2.8c-0.1,0-0.2,0-0.2,0h-4.3v5.7h4.3
			c1.5,0.1,2.9-1.1,3-2.6C640.5,56,640.5,55.9,640.5,55.8z M670.9,68.1l-6-7.5l-1.5,1.8v5.7h-3.1V50.3h3.1v8.5l7-8.5h3.9l-7.2,8.4
			l7.8,9.4L670.9,68.1z"/>
	</g>
</g>
</svg>
